<?xml version="1.0" encoding="iso-8859-1"?>
<!-- Generator: Adobe Illustrator 22.0.0, SVG Export Plug-In . SVG Version: 6.00 Build 0)  -->
<svg xmlns="http://www.w3.org/2000/svg" xmlns:xlink="http://www.w3.org/1999/xlink" version="1.1" x="0px" y="0px" viewBox="0 0 60 61.001" style="enable-background:new 0 0 60 61.001;" xml:space="preserve" width="512" height="512">
<g id="_x31_2-Casual">
	<path style="fill:#366DB6;" d="M40.363,46.262H19.637C11.244,52.433,1,53.212,1,60.001h29h29   C59,53.212,48.756,52.433,40.363,46.262z"/>
	<path style="fill:#D37D27;" d="M17,30.001v-2c-1.126-0.375-5.829-0.878-6.269-2.608C9.799,25.981,9,27.435,9,31.001   c0,1.028,1.802,6,3.333,6c0.508,0,0.98-0.325,1.385-0.879C13.255,34.431,17,31.704,17,30.001z"/>
	<path style="fill:#D37D27;" d="M49.414,25.505c-0.333,1.05-3.805,0.56-4.435,1.496c-0.674,1-0.979,1.5-0.979,1.5v1   c0,1.704,2.745,4.931,2.282,6.621c0.404,0.554,0.877,0.879,1.385,0.879c1.531,0,3.333-4.972,3.333-6   C51,27.624,50.282,26.152,49.414,25.505z"/>
	<path style="fill:#ED8319;" d="M30,45.001L30,45.001c-3.481,0-6.828,4.439-9.604,1.973C22.977,52.724,30,57.001,30,57.001   s7.023-4.276,9.604-10.027C36.828,49.439,33.481,45.001,30,45.001z"/>
	<path style="fill:#FBCE9D;" d="M39,11.001c-2.156,2-9,0-9,0c-5.505,2.198-11.061,1.103-11,1c-4.312,2-7,4-7,4l1,10v3v2   c0,9.615,7.991,20,16.981,20h0.039c8.99,0,16.981-10.385,16.981-20v-1v-12C44.844,12.001,39,11.001,39,11.001z"/>
	<path style="fill:#EBBA16;" d="M13,26.001v-5c0,0,1.431-5,5.743-7c-0.06,0.103,5.274,2.198,10.778,0c0,0,6.467,0,8.623-2   c0,0,6.701,3,8.856,9v9c0,0,0.305-0.5,0.979-1.5C49.345,26.472,50,24.1,50,21.708V20c0-2.068-0.503-4.112-1.52-5.952   c-1.327-2.401-3.764-5.486-8.18-8.047c0,0-0.606-1.688-3.183-2.953c-1.761-0.865-3.794-1.125-5.771-0.901   c-1.158,0.131-2.392,0.381-2.902,0.854c0,0-6.467,0-7.545-2c0,0-2.156,2-2.156,4c0,0-1.078-1-3.234-1c0,0-2.156,3-1.078,5   c0,0-4.431,2-4.431,10c0,0,0,9,3,10V26.001z"/>
	<path style="fill:#FFFFFF;" d="M15.964,22.037H25c1.65,0,3,1.35,3,3v0c0,3.3-2.7,6-6,6h-2.964c-3.32,0-6.036-2.716-6.036-6.036v0   C13,23.364,14.327,22.037,15.964,22.037z"/>
	<path style="fill:#FFFFFF;" d="M34.964,22.001H44c1.65,0,3,1.35,3,3v0c0,3.3-2.7,6-6,6h-2.964c-3.32,0-6.036-2.716-6.036-6.036v0   C32,23.328,33.327,22.001,34.964,22.001z"/>
	<path style="fill:#C91700;" d="M25.297,40.001c0.526,1.458,1.848,4,4.703,4c2.453,0,3.775-2.255,4.432-4H25.297z"/>
	<path style="fill:#4D007E;" d="M47,31.001c-0.09,0-0.181-0.012-0.271-0.038C46.298,30.841,46,30.448,46,30.001v-8.822   c-1.692-4.479-6.203-7.187-7.743-8.003c-2.494,1.652-7.374,1.81-8.544,1.824c-4.556,1.749-9.112,0.828-10.934,0.101   c-3.198,1.709-4.541,5.342-4.779,6.055v7.846c0,0.321-0.155,0.623-0.415,0.811c-0.26,0.188-0.596,0.239-0.901,0.138   C9.177,28.78,9,20.624,9,19.001c0-6.516,2.798-9.385,4.219-10.421c-0.51-2.298,1.25-4.845,1.478-5.162   c0.188-0.262,0.49-0.417,0.812-0.417c1.055,0,1.896,0.207,2.524,0.453c0.611-1.686,1.988-3.004,2.185-3.186   c0.227-0.21,0.539-0.306,0.844-0.253c0.305,0.05,0.57,0.239,0.717,0.512c0.456,0.846,3.575,1.427,6.335,1.472   c0.481-0.306,1.35-0.644,3.119-0.844c2.282-0.259,4.47,0.085,6.325,0.997c2.223,1.092,3.17,2.483,3.517,3.146   c4.563,2.717,7.018,5.984,8.28,8.268C50.431,15.511,51,17.737,51,20v1.708c0,2.681-0.758,5.223-2.192,7.351   c-0.648,0.963-0.948,1.45-0.955,1.463C47.668,30.824,47.342,31.001,47,31.001z M38.144,11.001c0.138,0,0.277,0.029,0.408,0.087   c0.289,0.129,7.115,3.247,9.389,9.575C47.98,20.771,48,20.885,48,21.001v5.421c0.658-1.443,1-3.044,1-4.713V20   c0-1.926-0.483-3.816-1.396-5.468c-1.165-2.107-3.464-5.148-7.807-7.666c-0.204-0.119-0.36-0.305-0.439-0.527   c-0.016-0.041-0.553-1.347-2.683-2.394c-1.511-0.742-3.315-1.019-5.218-0.804c-1.91,0.216-2.318,0.578-2.334,0.593   c-0.185,0.172-0.428,0.267-0.68,0.267c-1.39,0-5.488-0.128-7.518-1.553c-0.557,0.689-1.183,1.679-1.183,2.553   c0,0.397-0.236,0.757-0.6,0.917c-0.364,0.16-0.788,0.087-1.08-0.184c-0.021-0.018-0.687-0.583-2.023-0.708   c-0.526,0.895-1.254,2.524-0.727,3.501c0.132,0.245,0.156,0.532,0.067,0.795c-0.089,0.263-0.283,0.477-0.536,0.591   C14.694,9.983,11,11.826,11,19.001c0.001,2.21,0.324,5.228,1,7.17v-5.17c0-0.093,0.013-0.186,0.039-0.275   c0.064-0.222,1.611-5.464,6.283-7.632c0.335-0.155,0.721-0.112,1.01,0.099c0.839,0.38,5.321,1.674,9.819-0.121   c0.118-0.047,0.244-0.071,0.371-0.071c2.35-0.001,6.585-0.473,7.943-1.733C37.652,11.092,37.896,11.001,38.144,11.001z"/>
	<path style="fill:#4D007E;" d="M29.521,15.001c-0.427,0-0.822-0.276-0.955-0.705c-0.163-0.527,0.132-1.087,0.66-1.251   c2.41-0.745,2.526-2.022,2.53-2.076c0.037-0.538,0.502-0.979,1.033-0.949c0.539,0.019,0.966,0.442,0.966,0.98   c0,0.112-0.045,2.751-3.938,3.956C29.718,14.986,29.619,15.001,29.521,15.001z"/>
	<path style="fill:#4D007E;" d="M30.019,52.001c-9.999,0-18.019-11.488-18.019-21v-10c0-0.093,0.013-0.186,0.039-0.275   c0.064-0.222,1.611-5.464,6.283-7.632c0.334-0.155,0.721-0.112,1.01,0.099c0.838,0.381,5.321,1.675,9.818-0.121   c0.118-0.047,0.244-0.071,0.371-0.071c2.35-0.001,6.585-0.473,7.943-1.733c0.294-0.273,0.723-0.343,1.089-0.18   c0.289,0.129,7.115,3.247,9.389,9.575C47.98,20.771,48,20.885,48,21.001v10C48,40.512,39.979,52.001,30.019,52.001z M14,21.153   v9.847c0,9.589,7.916,19,15.981,19c8.104,0,16.019-9.411,16.019-19v-9.822c-1.692-4.479-6.203-7.187-7.743-8.003   c-2.494,1.652-7.374,1.81-8.544,1.824c-4.558,1.751-9.111,0.831-10.934,0.1C15.563,16.816,14.234,20.441,14,21.153z"/>
	<path style="fill:#4D007E;" d="M21.519,28.001c-1.088,0-2.06-0.497-2.739-1.398c-0.13-0.173-0.201-0.385-0.201-0.602   c0-1.103,0.897-2,2-2c0.552,0,1,0.448,1,1c0,0.399-0.233,0.743-0.571,0.904c0.292,0.119,0.633,0.16,0.983-0.043   c0.478-0.276,1.09-0.114,1.367,0.364c0.277,0.478,0.114,1.09-0.364,1.367C22.525,27.863,22.029,28.001,21.519,28.001z"/>
	<path style="fill:#4D007E;" d="M39.492,28.001c-1.088,0-2.06-0.497-2.739-1.398c-0.13-0.173-0.201-0.385-0.201-0.602   c0-1.103,0.897-2,2-2c0.552,0,1,0.448,1,1c0,0.399-0.233,0.743-0.571,0.904c0.292,0.119,0.633,0.16,0.983-0.043   c0.478-0.276,1.09-0.114,1.367,0.364c0.277,0.478,0.114,1.09-0.364,1.367C40.498,27.863,40.002,28.001,39.492,28.001z"/>
	<path style="fill:#4D007E;" d="M30,37.001c-0.552,0-1-0.448-1-1s0.448-1,1-1c0.552,0,1-0.449,1-1c0-0.322-0.15-0.617-0.41-0.808   c-1.01-0.74-1.59-1.808-1.59-2.929v-0.263c0-0.552,0.448-1,1-1s1,0.448,1,1v0.263c0,0.653,0.484,1.105,0.772,1.316   C32.541,32.144,33,33.048,33,34.001C33,35.655,31.654,37.001,30,37.001z"/>
	<path style="fill:#4D007E;" d="M12.333,38.001c-2.485,0-4.333-5.875-4.333-7c0-3.409,0.719-5.521,2.198-6.454   c0.271-0.17,0.607-0.201,0.904-0.083c0.297,0.119,0.52,0.372,0.599,0.683c0.593,2.333,1.327,2.809,1.616,2.905   C13.725,28.188,14,28.57,14,29.001v2c0,1.569,0.23,3.203,0.682,4.856c0.081,0.293,0.023,0.607-0.156,0.854   C13.749,37.777,12.905,38.001,12.333,38.001z M10.408,27.553C10.168,28.288,10,29.381,10,31.001   c0.018,0.982,1.61,4.722,2.396,5.008c0.026-0.005,0.108-0.047,0.22-0.147C12.207,34.214,12,32.581,12,31.001v-1.384   C11.368,29.2,10.84,28.516,10.408,27.553z"/>
	<path style="fill:#4D007E;" d="M47.667,38.001c-0.571,0-1.415-0.224-2.193-1.29c-0.179-0.246-0.237-0.56-0.156-0.854   C45.77,34.204,46,32.57,46,31.001v-1c0-0.184,0.051-0.364,0.147-0.521c0,0,0.312-0.512,1.003-1.537   c0.555-0.824,0.996-1.746,1.311-2.739c0.098-0.309,0.339-0.551,0.647-0.65c0.308-0.1,0.645-0.043,0.905,0.151   C51.35,25.702,52,27.761,52,31.001C52,32.125,50.151,38.001,47.667,38.001z M47.384,35.858c0.121,0.102,0.219,0.143,0.282,0.143   C48.39,35.722,49.982,31.983,50,31c0-1.549-0.156-2.612-0.378-3.341c-0.242,0.488-0.514,0.956-0.813,1.4   c-0.394,0.585-0.659,0.995-0.808,1.229v0.712C48,32.58,47.793,34.211,47.384,35.858z"/>
	<path style="fill:#4D007E;" d="M22,32.037h-2.964c-3.88,0-7.036-3.156-7.036-7.036c0-2.186,1.778-3.964,3.964-3.964H25   c2.206,0,4,1.794,4,4C29,28.897,25.86,32.037,22,32.037z M15.964,23.037c-1.083,0-1.964,0.881-1.964,1.964   c0,2.777,2.259,5.036,5.036,5.036H22c2.757,0,5-2.243,5-5c0-1.103-0.897-2-2-2H15.964z"/>
	<path style="fill:#4D007E;" d="M41,32.001h-2.964c-3.88,0-7.036-3.156-7.036-7.036c0-2.186,1.778-3.964,3.964-3.964H44   c2.206,0,4,1.794,4,4C48,28.86,44.86,32.001,41,32.001z M34.964,23.001c-1.083,0-1.964,0.881-1.964,1.964   c0,2.777,2.259,5.036,5.036,5.036H41c2.757,0,5-2.243,5-5c0-1.103-0.897-2-2-2H34.964z"/>
	<path style="fill:#4D007E;" d="M32,26.001h-4c-0.552,0-1-0.448-1-1s0.448-1,1-1h4c0.552,0,1,0.448,1,1S32.552,26.001,32,26.001z"/>
	<path style="fill:#4D007E;" d="M30,58.001c-0.18,0-0.36-0.049-0.52-0.146c-0.298-0.181-7.319-4.506-9.996-10.472   c-0.193-0.43-0.059-0.937,0.321-1.216c0.381-0.279,0.904-0.253,1.256,0.059c2.779,2.47,5.864,3.775,8.92,3.775h0.039   c3.057,0,6.141-1.305,8.92-3.775c0.353-0.312,0.876-0.337,1.256-0.059c0.38,0.279,0.514,0.786,0.321,1.216   c-2.677,5.965-9.698,10.291-9.996,10.472C30.36,57.952,30.18,58.001,30,58.001z M23.974,50.583   c2.239,2.569,4.916,4.483,6.025,5.226c1.109-0.743,3.784-2.659,6.022-5.224c-1.95,0.934-3.975,1.416-6.003,1.416h-0.039   C27.951,52.001,25.926,51.518,23.974,50.583z"/>
	<path style="fill:#4D007E;" d="M59,61.001H1c-0.552,0-1-0.448-1-1c0-4.931,4.545-7.029,9.808-9.458   c2.921-1.348,6.231-2.876,9.236-5.085c0.396-0.291,0.944-0.252,1.294,0.093c0.236,0.233,0.477,0.458,0.722,0.676   c0.105,0.094,0.19,0.209,0.248,0.337c2.029,4.52,7.058,8.152,8.691,9.246c1.633-1.095,6.667-4.735,8.692-9.246   c0.058-0.128,0.142-0.244,0.248-0.337c0.245-0.218,0.486-0.443,0.722-0.676c0.35-0.345,0.899-0.384,1.294-0.093   c3.005,2.209,6.316,3.738,9.236,5.085C55.455,52.971,60,55.069,60,60.001C60,60.553,59.552,61.001,59,61.001z M2.095,59.001h55.811   c-0.56-2.817-3.587-4.351-8.552-6.643c-2.792-1.289-5.931-2.737-8.902-4.803c-0.009,0.008-0.017,0.016-0.026,0.023   c-2.741,5.864-9.612,10.097-9.906,10.276c-0.319,0.194-0.721,0.194-1.04,0c-0.294-0.179-7.165-4.412-9.906-10.276   c-0.009-0.008-0.017-0.016-0.026-0.023c-2.971,2.065-6.109,3.514-8.902,4.803C5.681,54.649,2.655,56.183,2.095,59.001z"/>
	<path style="fill:#4D007E;" d="M31,48.001h-2c-0.552,0-1-0.448-1-1s0.448-1,1-1h2c0.552,0,1,0.448,1,1S31.552,48.001,31,48.001z"/>
	<path style="fill:#4D007E;" d="M36,41.001H24c-0.552,0-1-0.448-1-1s0.448-1,1-1h12c0.552,0,1,0.448,1,1S36.552,41.001,36,41.001z"/>
	<path style="fill:#4D007E;" d="M30,45.001c-2.519,0-4.576-1.699-5.644-4.661c-0.111-0.306-0.065-0.647,0.123-0.914   c0.187-0.267,0.492-0.425,0.818-0.425h9.136c0.328,0,0.636,0.161,0.823,0.431s0.229,0.614,0.113,0.922   C34.239,43.35,32.332,45.001,30,45.001z M26.86,41.001c0.644,1.08,1.634,2,3.14,2c1.31,0,2.232-0.919,2.863-2H26.86z"/>
</g>

</svg>
